<svg width="200" height="108.11871936877087" viewBox="0 0 200 108.11871936877087" class="css-1j8o68f"><defs id="SvgjsDefs1023"></defs><g id="SvgjsG1024" featurekey="nameFeature-0" transform="matrix(3.2580594384811414,0,0,3.2580594384811414,5.949979253708962,-27.016182479864415)" fill="#4a266a"><path d="M24.76 11.36 c-1.56 7.64 -2.68 19.2 -2.28 27.88 c-0.4 1.12 -3.64 2.48 -4.64 2.2 c-0.04 -0.48 -0.04 -1 -0.04 -1.56 c-1 0.28 -2 0.4 -2.72 0.2 c-0.08 -1.76 -0.08 -4 0 -6.4 c-0.76 2.52 -1.32 4.48 -1.72 6.72 c-0.84 0.48 -3.8 -0.2 -4.12 -1.28 c-1.36 -0.24 -2.68 -0.88 -2.84 -1.96 c-0.12 -0.88 -0.24 -1.56 -0.32 -2.16 c-0.52 2.4 -0.88 4.44 -1.08 6.16 c-1.56 0.68 -3.28 -0.12 -3.84 -1.12 c-1.76 -0.24 -3.2 -1.36 -2.96 -2.92 c1.6 -9.4 3.12 -15.76 5.6 -25.2 c0.76 -2.88 6.76 -4.48 8.2 -2.92 c-0.08 0.64 -0.16 1.32 -0.2 2.08 c0.68 -0.08 1.16 0 1.36 0.16 c-0.2 1.44 -0.24 3.32 -0.24 5.32 c0.68 -1.88 1.32 -3.68 1.8 -5.16 c0.84 -2.6 5.68 -4 8.96 -2.48 c-0.12 0.68 -0.28 1.36 -0.4 2.08 c0.56 0.04 1.04 0.16 1.48 0.36 z M22.56 9.48 c-2.36 -0.96 -6.32 0.44 -6.88 2.24 c-1.2 3.6 -3.4 9.44 -4.32 12.72 c-0.16 0.6 -0.68 0.68 -0.64 0.24 c0.24 -4.72 -0.28 -11.64 0.2 -15.32 c-0.76 -0.44 -5.56 0.56 -6.16 2.84 c-2.48 9.4 -3.96 15.72 -5.56 25.08 c-0.16 1.04 1.76 2.44 3.6 1.72 c0.44 -3.68 1.64 -8.64 3.36 -16.04 c0.36 -1.44 1.08 -1.52 1.08 -0.8 c-0.12 5.96 -0.4 8.52 -0.36 10.24 c0.04 1.68 0.2 2.56 0.52 4.6 c0.12 0.88 2.84 1.64 3.8 1.28 c0.8 -4.48 2.24 -7.76 4.8 -16.64 c0.36 -1.28 1.16 -0.92 1.08 -0.24 c-0.76 4.96 -1.2 13.52 -1.04 17.88 c1.08 0.08 3.84 -1.12 4.24 -2.08 c-0.4 -8.64 0.72 -20.08 2.28 -27.72 z M47.72 11.36 c-1.56 7.64 -2.68 19.2 -2.28 27.88 c-0.4 1.12 -3.64 2.48 -4.64 2.2 c-0.04 -0.48 -0.04 -1 -0.04 -1.56 c-1 0.28 -2 0.4 -2.72 0.2 c-0.08 -1.76 -0.08 -4 0 -6.4 c-0.76 2.52 -1.32 4.48 -1.72 6.72 c-0.84 0.48 -3.8 -0.2 -4.12 -1.28 c-1.36 -0.24 -2.68 -0.88 -2.84 -1.96 c-0.12 -0.88 -0.24 -1.56 -0.32 -2.16 c-0.52 2.4 -0.88 4.44 -1.08 6.16 c-1.56 0.68 -3.28 -0.12 -3.84 -1.12 c-1.76 -0.24 -3.2 -1.36 -2.96 -2.92 c1.6 -9.4 3.12 -15.76 5.6 -25.2 c0.76 -2.88 6.76 -4.48 8.2 -2.92 c-0.08 0.64 -0.16 1.32 -0.2 2.08 c0.68 -0.08 1.16 0 1.36 0.16 c-0.2 1.44 -0.24 3.32 -0.24 5.32 c0.68 -1.88 1.32 -3.68 1.8 -5.16 c0.84 -2.6 5.68 -4 8.96 -2.48 c-0.12 0.68 -0.28 1.36 -0.4 2.08 c0.56 0.04 1.04 0.16 1.48 0.36 z M45.519999999999996 9.48 c-2.36 -0.96 -6.32 0.44 -6.88 2.24 c-1.2 3.6 -3.4 9.44 -4.32 12.72 c-0.16 0.6 -0.68 0.68 -0.64 0.24 c0.24 -4.72 -0.28 -11.64 0.2 -15.32 c-0.76 -0.44 -5.56 0.56 -6.16 2.84 c-2.48 9.4 -3.96 15.72 -5.56 25.08 c-0.16 1.04 1.76 2.44 3.6 1.72 c0.44 -3.68 1.64 -8.64 3.36 -16.04 c0.36 -1.44 1.08 -1.52 1.08 -0.8 c-0.12 5.96 -0.4 8.52 -0.36 10.24 c0.04 1.68 0.2 2.56 0.52 4.6 c0.12 0.88 2.84 1.64 3.8 1.28 c0.8 -4.48 2.24 -7.76 4.8 -16.64 c0.36 -1.28 1.16 -0.92 1.08 -0.24 c-0.76 4.96 -1.2 13.52 -1.04 17.88 c1.08 0.08 3.84 -1.12 4.24 -2.08 c-0.4 -8.64 0.72 -20.08 2.28 -27.72 z M59.56 23.92 c0 0.32 -0.12 3.04 -1.52 3.84 c-0.52 0.32 -1.52 0.56 -2.72 0.8 c-0.28 1.96 -0.52 3.96 -0.68 5.84 c-1.36 0.36 -2.96 -0.16 -3.48 -1.24 c-1.64 -0.2 -3.04 -1.12 -2.92 -2.8 c0 -0.68 0.12 -1.44 0.24 -2.32 c-0.84 0.08 -1.56 0.12 -2.84 0.12 c0 -2.36 0.56 -5.16 1.88 -6.04 c0.52 -0.32 1.32 -0.56 2.2 -0.76 c0.36 -1.68 0.72 -3.4 1.16 -5.8 c2.32 -0.4 4 0.08 5.08 1.84 c-0.08 0.36 -0.16 0.68 -0.24 1 c0.6 0.2 1.04 0.6 1.4 1.12 l-0.36 1.44 c0.48 0.08 1 0.2 1.6 0.32 c0 0.48 -0.04 1.44 -0.28 2.4 c0.52 0.04 1.04 0.12 1.48 0.24 z M57.36 22.08 c-0.88 -0.2 -2 -0.24 -3.4 -0.24 c0.32 -1.64 0.64 -3.04 0.96 -4.28 c-0.64 -0.96 -1.76 -1.32 -3.2 -1.12 c-0.36 2 -0.76 3.84 -1.12 5.76 c-1.24 0.24 -2.12 0.48 -2.52 0.76 c-1 0.64 -1.4 2.8 -1.44 4.2 c0.64 0 1.64 -0.08 3 -0.24 c-0.24 1.48 -0.36 2.6 -0.4 3.48 c-0.08 1.32 1.64 2.2 3.2 1.84 c0.16 -1.84 0.4 -3.8 0.72 -5.84 c1.32 -0.28 2.28 -0.52 2.8 -0.8 c1.16 -0.72 1.36 -2.88 1.4 -3.52 z"></path></g></svg>